<?xml version="1.0" standalone="no"?>
<!DOCTYPE svg PUBLIC "-//W3C//DTD SVG 20010904//EN"
 "http://www.w3.org/TR/2001/REC-SVG-20010904/DTD/svg10.dtd">
<svg version="1.0" xmlns="http://www.w3.org/2000/svg"
 width="1536.000000pt" height="1536.000000pt" viewBox="0 0 1536.000000 1536.000000"
 preserveAspectRatio="xMidYMid meet">
<metadata>
Created by potrace 1.14, written by Peter Selinger 2001-2017
</metadata>
<g transform="translate(0.000000,1536.000000) scale(0.100000,-0.100000)"
fill="#000000" stroke="none">
<path d="M1820 10070 c-535 -110 -843 -622 -776 -1285 46 -454 291 -795 661
-920 162 -55 416 -63 600 -20 384 90 654 386 729 800 3 17 8 41 11 55 30 152
21 430 -21 608 -95 409 -365 683 -748 761 -128 26 -333 26 -456 1z m440 -240
c96 -32 167 -76 237 -147 62 -62 153 -202 153 -235 0 -9 4 -19 9 -22 10 -6 48
-141 56 -197 19 -139 24 -307 13 -439 -33 -368 -199 -623 -460 -709 -85 -28
-118 -32 -223 -32 -184 0 -306 45 -424 156 -96 90 -168 216 -209 365 -20 71
-24 94 -41 215 -10 74 -5 329 8 410 59 358 242 591 511 649 97 21 287 14 370
-14z"/>
<path d="M3493 8954 l0 -1084 132 0 132 0 -1 870 c-1 479 2 870 5 870 3 0 29
-66 58 -147 29 -82 74 -209 101 -283 27 -74 94 -263 150 -420 56 -157 104
-292 107 -300 13 -35 76 -209 93 -260 10 -30 30 -84 43 -120 l24 -65 149 0
149 0 106 285 c58 157 108 292 112 300 3 8 49 134 102 280 208 567 266 724
270 729 3 2 5 -388 5 -867 l0 -872 145 0 145 0 0 1083 0 1084 -191 -1 -191 -1
-48 -130 c-27 -71 -126 -339 -220 -595 -94 -256 -177 -481 -185 -500 -8 -19
-47 -126 -87 -237 -40 -112 -76 -203 -79 -203 -4 0 -11 17 -17 38 -10 37 -146
420 -162 457 -5 11 -45 121 -89 245 -43 124 -98 277 -121 340 -22 63 -54 151
-70 195 -103 287 -123 343 -131 366 l-10 27 -213 0 -213 0 0 -1084z"/>
<path d="M6077 10026 c-2 -6 -3 -492 -3 -1081 l1 -1070 155 0 155 0 0 1073 c0
591 -2 1077 -5 1082 -8 12 -298 9 -303 -4z"/>
<path d="M7412 9711 c-6 -5 -10 -541 -3 -573 1 -8 42 -5 57 5 11 7 16 566 5
568 -35 5 -52 5 -59 0z"/>
<path d="M9904 9712 c-6 -4 -10 -48 -9 -114 1 -99 0 -106 -15 -93 -55 50 -152
46 -207 -7 -74 -72 -85 -233 -21 -318 50 -65 152 -69 216 -7 l35 32 -7 -26
c-6 -27 8 -47 32 -43 6 1 19 2 27 3 13 1 15 40 15 286 0 157 -3 285 -7 286 -5
0 -17 2 -28 4 -11 2 -25 1 -31 -3z m-34 -252 c24 -17 25 -22 25 -113 -1 -89
-2 -97 -25 -116 -14 -11 -42 -26 -64 -33 -75 -23 -118 27 -117 138 1 111 41
160 121 148 19 -3 46 -14 60 -24z"/>
<path d="M6935 9671 c-188 -85 -195 -431 -10 -521 119 -58 276 -14 332 94 65
123 43 303 -45 385 -66 61 -194 80 -277 42z m204 -69 c41 -31 65 -90 69 -170
7 -131 -37 -220 -121 -243 -117 -31 -203 48 -215 197 -9 121 46 226 126 240
21 3 42 7 47 8 17 5 69 -13 94 -32z"/>
<path d="M7620 9646 c0 -24 5 -35 18 -38 26 -7 57 5 56 22 -1 8 -2 23 -3 33
-1 13 -10 17 -36 17 -33 0 -35 -2 -35 -34z"/>
<path d="M9010 9645 c0 -21 5 -35 13 -36 6 -1 21 -2 32 -3 21 -1 35 26 27 57
-3 12 -14 17 -38 17 -32 0 -34 -2 -34 -35z"/>
<path d="M10678 9673 c0 -5 -2 -126 -3 -270 -1 -231 1 -263 15 -264 8 0 23 -2
33 -4 16 -3 17 13 17 218 l1 222 72 -200 72 -200 37 -3 c41 -3 30 -24 120 223
70 195 67 198 67 -45 l1 -215 33 0 32 0 3 272 2 271 -47 0 -48 1 -75 -205
c-66 -181 -90 -232 -90 -191 0 10 -94 279 -120 342 -4 11 -11 28 -14 38 -4 13
-17 17 -56 17 -27 0 -51 -3 -52 -7z"/>
<path d="M12200 9643 c0 -37 1 -38 35 -38 34 0 35 1 35 38 0 36 -1 37 -35 37
-34 0 -35 -1 -35 -37z"/>
<path d="M8010 9538 c-19 -5 -50 -24 -67 -41 l-33 -31 0 35 c0 34 -2 35 -32
33 -18 -1 -35 -3 -38 -3 -4 -1 -5 -281 -1 -376 1 -16 8 -20 33 -19 l33 1 3
135 3 136 41 36 c48 43 100 49 118 15 7 -12 12 -80 12 -170 0 -156 -1 -151 43
-151 8 0 18 0 23 1 4 0 7 60 7 133 -1 120 1 135 19 156 26 30 68 52 99 52 46
0 52 -21 53 -183 0 -159 5 -173 51 -161 20 6 21 13 21 164 0 182 -10 217 -65
235 -56 18 -101 7 -144 -36 -22 -22 -39 -33 -39 -26 0 20 -42 56 -76 66 -16 4
-45 4 -64 -1z"/>
<path d="M8740 9542 c-53 -6 -69 -13 -99 -43 l-31 -31 0 35 c0 33 -2 34 -35
33 -30 -1 -35 -5 -36 -26 -1 -30 -1 -478 0 -502 1 -14 10 -18 36 -18 l35 0 0
95 0 94 38 -25 c31 -22 45 -25 90 -22 65 6 99 29 131 91 72 142 -5 334 -129
319z m44 -85 c46 -46 46 -192 1 -245 -19 -22 -31 -27 -68 -26 -29 1 -55 9 -76
23 -31 22 -31 23 -31 116 l0 94 33 24 c55 42 108 47 141 14z"/>
<path d="M9294 9533 c-49 -11 -63 -18 -68 -36 -8 -33 6 -39 53 -22 91 32 141
9 141 -65 l0 -40 -42 -1 c-24 -1 -46 -1 -50 0 -4 0 -23 -6 -43 -15 -67 -28
-94 -67 -90 -128 3 -55 49 -96 106 -96 39 0 97 23 111 44 4 6 16 0 32 -17 21
-23 33 -28 64 -25 30 2 38 7 40 26 3 16 -2 22 -17 22 -11 0 -23 6 -28 13 -4 6
-8 72 -9 145 -1 102 -5 138 -18 157 -32 48 -86 59 -182 38z m126 -256 c0 -48
-3 -54 -29 -70 -82 -48 -162 15 -105 83 25 29 43 36 102 39 l32 1 0 -53z"/>
<path d="M10190 9535 c-69 -13 -80 -20 -80 -51 0 -28 8 -29 57 -9 44 18 92 19
115 1 10 -7 21 -33 24 -58 l6 -45 -35 -1 c-90 -3 -166 -35 -186 -79 -28 -61
-5 -128 53 -154 34 -15 44 -16 83 -4 25 8 54 22 65 32 19 17 20 17 40 -10 15
-21 28 -27 57 -27 21 0 40 3 43 6 11 11 -4 40 -25 49 -21 9 -22 18 -28 150 -3
77 -8 147 -12 155 -20 42 -97 62 -177 45z m119 -256 c-3 -61 -31 -89 -90 -89
-30 0 -42 5 -55 26 -35 53 23 114 109 114 l38 0 -2 -51z"/>
<path d="M11415 9535 c-81 -28 -134 -125 -122 -226 8 -62 30 -102 80 -143 35
-28 46 -31 115 -33 96 -2 136 16 125 57 -4 16 -8 16 -46 3 -46 -16 -108 -11
-143 12 -30 19 -56 70 -52 98 3 21 7 22 123 22 l120 0 -2 49 c-6 124 -95 196
-198 161z m100 -70 c16 -15 25 -36 25 -55 l0 -30 -85 0 c-94 0 -99 4 -70 60
29 55 89 67 130 25z"/>
<path d="M12553 9539 c-108 -14 -168 -87 -166 -204 0 -74 28 -132 80 -172 31
-24 47 -28 106 -30 85 -2 114 10 119 48 3 16 3 29 2 29 -2 0 -15 -5 -31 -11
-39 -15 -106 -13 -132 3 -79 48 -85 196 -12 262 21 19 83 25 146 14 15 -2 21
3 23 25 2 15 0 27 -5 27 -4 0 -24 4 -43 8 -19 4 -58 5 -87 1z"/>
<path d="M12925 9543 c-11 -2 -44 -8 -72 -14 -49 -10 -53 -12 -53 -40 0 -29
17 -38 36 -20 5 6 32 13 59 16 60 8 91 -11 98 -61 7 -44 -1 -51 -64 -57 -71
-6 -132 -37 -151 -77 -22 -44 -8 -107 29 -138 37 -31 114 -27 163 8 23 16 35
20 38 12 12 -36 62 -53 105 -36 21 8 9 44 -14 44 -25 0 -29 21 -32 173 -2 121
-4 128 -28 153 -26 26 -78 43 -114 37z m70 -258 c1 -54 -3 -63 -36 -80 -59
-31 -119 -8 -119 45 0 45 56 81 120 77 34 -2 35 -3 35 -42z"/>
<path d="M13387 9536 c-20 -6 -51 -24 -67 -39 -29 -28 -35 -25 -31 14 2 19
-18 29 -45 24 -11 -2 -22 -4 -25 -4 -3 -1 -5 -88 -5 -195 l0 -194 28 -4 c15
-3 31 -2 36 1 5 3 8 60 8 125 -1 97 2 124 16 148 22 35 74 68 109 68 48 0 54
-20 56 -179 1 -80 2 -150 2 -156 1 -5 17 -10 36 -10 l35 -1 0 159 c0 202 -7
222 -90 247 -14 4 -42 2 -63 -4z"/>
<path d="M13780 9539 c-85 -10 -108 -23 -103 -53 3 -14 6 -26 7 -26 0 0 23 7
50 15 64 19 89 19 116 -3 15 -12 22 -30 23 -57 l2 -40 -62 -7 c-105 -11 -159
-49 -167 -117 -4 -39 17 -86 48 -107 35 -22 113 -15 155 16 31 21 33 22 46 4
8 -11 15 -22 15 -26 0 -5 20 -8 45 -8 41 0 45 2 45 25 0 18 -5 25 -19 25 -11
0 -23 5 -27 11 -3 6 -7 70 -8 142 -1 77 -7 141 -13 153 -27 48 -71 63 -153 53z
m94 -256 c-1 -27 -2 -51 -3 -55 -2 -14 -60 -38 -90 -38 -37 0 -61 23 -61 59 0
45 51 79 120 80 l36 1 -2 -47z"/>
<path d="M7625 9532 c-3 -3 -5 -92 -5 -199 0 -147 3 -193 13 -194 6 0 22 -2
35 -3 12 -2 22 2 23 8 4 42 3 379 -1 385 -6 8 -57 10 -65 3z"/>
<path d="M9014 9526 c-3 -7 -3 -97 -2 -200 3 -187 3 -189 25 -191 44 -3 46 4
46 199 0 103 -4 190 -7 194 -12 11 -58 10 -62 -2z"/>
<path d="M11716 9531 c-2 -3 27 -48 66 -98 l69 -92 -74 -100 c-65 -85 -72
-100 -56 -104 37 -10 58 5 110 79 29 41 56 74 59 74 3 -1 31 -36 62 -78 53
-73 59 -78 92 -77 20 1 38 3 40 6 2 2 -27 45 -65 94 -38 50 -69 94 -69 98 0 4
26 47 58 95 32 48 61 92 65 98 6 10 -7 11 -58 5 -5 -1 -32 -34 -59 -75 l-50
-73 -54 71 c-30 39 -56 72 -57 74 -5 6 -75 9 -79 3z"/>
<path d="M12200 9335 l0 -200 32 2 c18 1 35 2 38 2 3 1 4 90 2 200 l-3 198
-34 -1 -35 -1 0 -200z"/>
<path d="M8617 8585 c-36 -18 -57 -57 -60 -115 -2 -52 -4 -55 -30 -58 -22 -3
-27 -8 -27 -31 0 -24 4 -28 25 -26 14 2 25 0 26 -3 1 -4 2 -81 3 -172 l1 -165
38 -1 37 -1 0 172 0 173 38 -3 c50 -3 62 3 62 31 0 22 -4 24 -50 24 l-50 0 0
55 c0 66 22 88 80 79 19 -3 40 -7 45 -7 6 -1 11 10 13 25 3 24 0 27 -40 32
-52 8 -84 5 -111 -9z"/>
<path d="M10419 8553 c-53 -73 -53 -73 -25 -73 18 0 44 18 86 60 l60 60 -43 0
c-40 0 -46 -3 -78 -47z"/>
<path d="M7076 8480 c1 -113 0 -115 -39 -81 -12 10 -38 15 -75 16 -47 0 -63
-5 -94 -28 -97 -74 -101 -290 -8 -357 56 -40 134 -34 186 15 l34 32 0 -33 c0
-32 2 -34 35 -34 l35 0 0 290 0 290 -37 0 -38 0 1 -110z m-30 -144 c31 -21 31
-21 30 -112 -1 -98 -8 -114 -57 -140 -44 -22 -92 -18 -120 12 -20 22 -24 37
-27 102 -4 94 16 141 68 158 39 13 64 8 106 -20z"/>
<path d="M7860 8283 l0 -273 35 0 c21 0 36 5 36 13 8 61 2 527 -6 528 -5 1
-22 2 -37 3 l-28 3 0 -274z"/>
<path d="M10986 8552 c-3 -3 -6 -19 -6 -37 0 -28 3 -31 35 -33 34 -3 35 -1 35
33 0 21 -5 35 -12 36 -7 0 -21 2 -30 4 -9 2 -19 0 -22 -3z"/>
<path d="M10718 8483 c-13 -3 -18 -15 -18 -39 0 -30 -3 -34 -26 -34 -22 0 -25
-4 -22 -27 2 -20 8 -27 20 -25 9 1 19 -1 22 -6 3 -5 6 -67 7 -138 2 -144 7
-165 44 -190 29 -19 111 -26 124 -10 19 25 8 46 -24 46 -63 0 -69 13 -71 159
-2 93 1 131 9 132 7 1 30 2 52 3 36 1 40 3 41 29 1 26 -1 27 -52 27 -51 0 -53
1 -52 28 1 55 -3 59 -54 45z"/>
<path d="M7372 8405 c-65 -29 -103 -96 -107 -187 -7 -148 111 -240 266 -207
27 6 49 14 50 17 0 4 2 18 5 31 4 20 1 22 -18 16 -46 -14 -133 -16 -157 -3
-32 17 -59 56 -67 96 l-6 32 127 0 128 0 -6 51 c-8 63 -33 116 -68 142 -35 25
-105 31 -147 12z m126 -72 c6 -9 12 -22 13 -27 0 -6 2 -19 4 -28 4 -21 10 -20
-88 -22 -56 -2 -80 1 -84 10 -8 23 28 83 55 92 33 11 82 -2 100 -25z"/>
<path d="M8244 8414 c-12 -3 -38 -20 -58 -38 l-36 -34 0 34 c0 33 -2 34 -37
34 l-38 0 2 -192 c1 -106 2 -196 2 -200 1 -5 17 -8 36 -8 l35 0 0 133 0 133
33 31 c60 58 119 65 138 16 5 -13 9 -89 9 -169 l0 -144 38 0 37 0 -2 142 c-1
79 -2 155 -2 170 -1 43 -48 89 -96 93 -22 2 -49 1 -61 -1z"/>
<path d="M8900 8404 c-74 -32 -111 -93 -112 -187 -1 -128 60 -204 170 -211
125 -8 204 70 205 204 1 90 -33 154 -98 188 -40 21 -122 24 -165 6z m138 -60
c35 -23 51 -70 48 -139 -4 -72 -17 -107 -48 -129 -30 -21 -100 -21 -127 2 -46
36 -62 161 -30 228 27 56 102 74 157 38z"/>
<path d="M9415 8405 c-17 -9 -38 -28 -48 -43 l-16 -27 -1 38 c0 36 -1 37 -37
37 l-38 0 2 -187 c0 -104 2 -194 2 -200 1 -8 15 -13 36 -13 l35 0 0 134 c0
120 2 136 21 160 27 35 67 54 101 49 26 -3 28 -1 25 29 -2 27 -7 33 -27 36
-14 1 -39 -5 -55 -13z"/>
<path d="M9725 8402 c-16 -10 -36 -26 -44 -35 -21 -26 -30 -20 -26 14 4 29 3
30 -33 27 l-37 -3 0 -195 0 -195 32 -3 c40 -4 42 3 39 147 -2 108 0 116 22
143 51 60 123 73 141 25 5 -13 9 -79 10 -147 0 -69 0 -135 1 -147 0 -19 6 -23
35 -23 l35 0 0 136 0 135 35 34 c45 41 79 51 111 30 24 -15 24 -18 24 -176 l0
-160 37 3 38 3 1 155 c0 85 -4 168 -9 183 -26 78 -145 88 -207 19 l-25 -28
-30 34 c-38 43 -103 54 -150 24z"/>
<path d="M10329 8404 c-41 -12 -46 -17 -46 -43 l0 -29 51 18 c55 18 103 17
124 -4 8 -7 16 -32 19 -55 5 -35 3 -41 -13 -42 -99 -3 -175 -33 -198 -78 -62
-119 66 -215 183 -138 l38 26 13 -24 c14 -26 53 -37 88 -24 27 10 25 27 -4 43
-10 6 -22 16 -26 21 -4 6 -8 70 -8 142 0 131 0 133 -28 164 -25 28 -35 32 -88
34 -32 2 -80 -3 -105 -11z m143 -203 c4 0 7 -24 5 -53 -2 -48 -4 -52 -38 -70
-49 -25 -93 -16 -110 24 -10 25 -9 33 8 56 27 37 78 53 135 43z"/>
<path d="M11272 8400 c-75 -34 -112 -103 -106 -197 9 -152 107 -221 267 -189
34 8 37 11 37 42 l0 33 -32 -14 c-52 -21 -113 -13 -146 19 -36 33 -50 77 -45
140 7 90 72 143 153 124 58 -13 68 -10 68 17 0 33 -8 37 -87 41 -49 2 -77 -2
-109 -16z"/>
<path d="M11633 8406 c-23 -8 -45 -11 -48 -8 -3 3 -5 -11 -5 -30 l0 -36 41 14
c106 37 147 19 153 -67 2 -23 -2 -29 -18 -30 -138 -5 -208 -50 -210 -133 0
-39 4 -51 32 -78 27 -28 39 -32 77 -32 28 1 60 11 90 28 35 21 45 24 45 12 0
-22 43 -47 71 -42 13 3 28 5 32 5 13 1 3 46 -10 46 -29 0 -35 26 -37 158 -2
155 -12 179 -73 196 -49 14 -88 13 -140 -3z m138 -213 c0 -7 1 -26 1 -43 0
-16 -1 -34 -1 -40 -1 -15 -46 -41 -80 -46 -65 -11 -98 76 -43 114 40 29 121
39 123 15z"/>
<path d="M10979 8403 c-1 -11 -1 -343 0 -370 1 -19 7 -23 36 -23 l35 0 0 200
0 200 -35 0 c-19 0 -35 -3 -36 -7z"/>
<path d="M3676 7374 c-182 -43 -335 -208 -362 -392 -3 -20 -7 -43 -10 -51 -3
-8 -5 -60 -5 -115 0 -180 53 -324 156 -428 97 -98 198 -137 349 -136 86 1 98
-1 142 -27 118 -69 371 -173 384 -158 41 48 80 102 80 110 0 5 -30 15 -67 23
-70 14 -243 69 -282 90 -22 11 -22 12 21 39 103 66 184 188 212 321 19 85 14
284 -8 365 -48 177 -176 312 -336 355 -64 18 -205 20 -274 4z m284 -140 c126
-69 191 -221 185 -435 -3 -105 -8 -136 -30 -199 -44 -124 -128 -206 -235 -227
-14 -3 -55 -5 -92 -5 -142 -1 -251 93 -304 261 -19 57 -26 246 -13 326 21 136
113 263 216 298 77 27 205 18 273 -19z"/>
<path d="M10330 7360 l-65 -5 0 -535 c0 -294 3 -537 7 -540 6 -5 48 -5 130 -1
16 1 18 21 20 228 l3 228 69 0 68 0 96 -145 c53 -80 99 -147 102 -150 3 -3 27
-39 54 -80 28 -41 51 -77 53 -79 7 -10 191 -6 185 4 -3 5 -84 120 -180 254
-168 236 -181 260 -138 261 7 0 76 50 102 75 30 28 64 99 73 151 26 147 -24
253 -143 305 -42 19 -73 23 -176 26 -69 2 -141 4 -160 6 -19 1 -64 0 -100 -3z
m324 -137 c73 -27 101 -69 101 -152 0 -82 -33 -145 -92 -178 -45 -25 -71 -32
-170 -40 l-73 -6 0 195 c0 107 3 197 6 201 12 12 180 -3 228 -20z"/>
<path d="M5462 7289 l3 -73 60 -1 c33 -1 65 0 70 2 6 2 11 33 10 71 l0 67 -73
3 -73 3 3 -72z"/>
<path d="M6873 7222 l-43 -3 0 -75 0 -74 -50 0 -50 0 0 -54 0 -54 46 2 c25 1
47 -1 49 -4 3 -4 5 -123 5 -264 1 -215 4 -264 18 -303 21 -56 77 -108 134
-124 43 -11 165 -8 187 5 6 4 11 29 11 55 l0 47 -42 -6 c-43 -6 -91 4 -116 23
-41 32 -46 64 -47 319 0 160 3 249 10 251 5 1 52 2 103 2 l92 -1 1 25 c1 14 2
37 2 51 2 25 2 25 -103 30 l-105 5 0 75 0 75 -30 0 c-17 0 -49 -1 -72 -3z"/>
<path d="M6229 7076 c-56 -20 -102 -52 -148 -101 l-41 -45 -1 53 c-1 28 -1 59
0 68 2 13 -8 18 -41 20 -24 2 -57 3 -74 1 l-31 -3 1 -397 1 -397 70 1 70 0 2
249 c1 137 4 258 7 270 8 30 103 122 151 144 78 38 149 31 181 -16 17 -25 19
-53 22 -293 1 -146 3 -285 5 -310 l2 -44 67 -1 c37 0 69 5 71 10 2 6 3 145 2
310 -2 343 -6 366 -68 429 -63 62 -161 83 -248 52z"/>
<path d="M7550 7078 c-63 -11 -154 -40 -161 -51 -9 -12 -5 -107 4 -107 4 0 24
7 45 16 149 63 280 56 317 -16 16 -30 27 -158 14 -166 -4 -2 -44 -6 -90 -9
-266 -18 -395 -139 -355 -329 12 -52 87 -130 141 -145 95 -26 197 -1 286 70
22 17 41 30 42 28 1 -2 11 -21 21 -42 27 -53 65 -70 137 -64 73 6 81 11 77 55
-3 32 -8 37 -36 43 -43 9 -60 25 -67 63 -3 17 -7 139 -8 271 -3 225 -4 243
-25 282 -12 22 -34 51 -48 62 -58 46 -172 61 -294 39z m224 -519 c1 -105 -3
-113 -74 -149 -68 -35 -124 -41 -169 -18 -40 20 -71 66 -71 108 0 84 101 153
235 163 77 5 79 2 79 -104z"/>
<path d="M8511 7060 c-51 -25 -141 -102 -141 -122 0 -4 -3 -8 -7 -8 -5 0 -7
31 -6 70 l2 70 -74 0 -73 0 1 -397 2 -398 60 0 c33 0 65 1 71 3 8 2 11 81 10
258 l-1 255 40 50 c81 98 181 143 258 116 58 -19 61 -42 64 -371 2 -164 5
-301 8 -304 3 -3 34 -6 70 -6 49 -1 65 2 67 14 2 8 3 146 2 306 0 336 -5 366
-68 429 -72 71 -181 84 -285 35z"/>
<path d="M9327 7084 c-1 -1 -14 -5 -27 -7 -41 -8 -110 -28 -135 -39 -21 -9
-23 -17 -23 -69 1 -32 4 -57 7 -55 83 41 176 66 244 66 61 0 111 -28 126 -72
16 -44 14 -158 -1 -159 -156 -7 -232 -21 -300 -55 -67 -34 -115 -85 -131 -141
-45 -152 50 -286 205 -292 69 -3 119 14 194 64 37 25 68 44 69 43 1 -2 8 -18
15 -37 25 -62 108 -88 189 -60 31 11 36 24 25 67 -5 16 -14 22 -34 22 -30 0
-54 22 -65 60 -5 14 -9 133 -9 265 -2 229 -3 242 -25 287 -39 82 -120 120
-248 117 -40 -1 -74 -3 -76 -5z m201 -533 l-3 -106 -65 -33 c-101 -51 -179
-43 -220 23 -43 70 -10 154 77 195 45 21 172 41 201 32 9 -3 12 -31 10 -111z"/>
<path d="M11420 7074 c-62 -17 -121 -52 -164 -98 -81 -88 -119 -256 -90 -407
24 -130 96 -228 203 -278 50 -23 68 -26 166 -26 98 0 116 3 166 26 107 50 179
148 203 278 36 193 -22 370 -151 460 -80 55 -224 75 -333 45z m223 -117 c78
-42 114 -127 115 -279 2 -212 -77 -315 -237 -306 -93 5 -143 38 -179 116 -24
51 -26 69 -27 177 0 175 35 257 129 300 39 18 160 14 199 -8z"/>
<path d="M12340 7074 c-163 -44 -263 -196 -263 -399 0 -239 134 -401 343 -413
259 -15 414 142 413 418 -1 250 -141 404 -373 408 -36 1 -90 -6 -120 -14z
m239 -127 c26 -18 48 -45 68 -84 26 -54 28 -66 28 -178 0 -131 -3 -153 -33
-211 -36 -70 -94 -103 -186 -105 -99 -3 -177 55 -207 152 -15 48 -20 205 -8
264 17 93 53 144 123 176 59 28 161 21 215 -14z"/>
<path d="M4557 7072 l-38 -3 4 -317 c1 -174 6 -327 9 -340 9 -31 42 -83 65
-102 44 -37 87 -49 163 -46 92 3 141 26 215 100 l52 52 1 -30 c0 -17 0 -49 1
-71 l1 -41 68 1 67 1 3 396 2 396 -47 4 c-27 1 -59 2 -73 0 l-25 -3 1 -252 c1
-189 -2 -258 -11 -277 -17 -33 -103 -113 -143 -134 -78 -40 -160 -26 -188 32
-16 33 -18 70 -18 334 l-1 296 -35 4 c-19 2 -52 2 -73 0z"/>
<path d="M5507 7072 l-47 -3 2 -397 3 -397 60 2 c33 1 65 2 70 2 7 1 10 137
10 395 l0 394 -25 4 c-14 2 -46 2 -73 0z"/>
</g>
</svg>
